<svg height="207.019668" viewBox="0 0 70 30" width="483.045892" xmlns="http://www.w3.org/2000/svg"><g transform="translate(.69478 .69501)"><g fill="#7f7e82"><path d="m15.337 25.557h.449l1.947 2.364v-2.364h.314v2.875h-.314l-2.097-2.57v2.57h-.299z"/><path d="m19.702 25.557h.389l1.339 2.875h-.355l-.52-1.158h-1.301l-.545 1.158h-.352zm.72 1.432-.525-1.159-.527 1.161z"/><path d="m22.129 25.863h-1.136v-.306h2.589v.306h-1.137v2.569h-.316z"/><path d="m23.896999 25.556999h.317v2.875h-.317z"/><path d="m26.188 25.484c.888 0 1.53.571 1.53 1.528 0 1.018-.778 1.491-1.53 1.491-.757 0-1.532-.473-1.532-1.491 0-.957.645-1.528 1.532-1.528m0 2.708c.635 0 1.207-.371 1.207-1.245 0-.642-.449-1.169-1.207-1.169-.76 0-1.209.527-1.209 1.169 0 .874.565 1.245 1.209 1.245"/><path d="m28.161 25.557h.45l1.947 2.364v-2.364h.315v2.875h-.315l-2.095-2.57v2.57h-.302z"/><path d="m34.565 25.557h.319v2.568h2.06v.307h-2.379z"/><path d="m38.763 25.557h.319v2.568h2.064v.307h-2.383z"/><path d="m44.715 25.556h1.513c.299 0 1.017 0 1.017.75 0 .397-.236.521-.401.605.158.079.489.237.489.713 0 .776-.736.808-1.282.808h-1.336zm.317 1.227h1.111c.368 0 .783-.068.783-.47 0-.459-.424-.465-.891-.465h-1.003zm0 1.341h1.226c.379 0 .751-.072.751-.51 0-.4-.289-.54-.715-.54h-1.262z"/><path d="m49.175 25.484c.886 0 1.531.571 1.531 1.528 0 1.018-.777 1.491-1.531 1.491-.757 0-1.531-.473-1.531-1.491.001-.957.641-1.528 1.531-1.528m0 2.708c.635 0 1.207-.371 1.207-1.245 0-.642-.448-1.169-1.207-1.169s-1.21.527-1.21 1.169c0 .874.565 1.245 1.21 1.245"/><path d="m51.146 25.557h1.513c.416 0 1.028.098 1.028.804 0 .599-.508.773-.825.788l.864 1.283h-.392l-.842-1.271h-1.027v1.271h-.319zm.32 1.294h1.119c.459 0 .802-.073.802-.494 0-.42-.343-.494-.802-.494h-1.119z"/><path d="m57.778 25.863h-1.136v-.306h2.589v.306h-1.134v2.569h-.319z"/><path d="m60.794 25.484c.888 0 1.529.571 1.529 1.528 0 1.018-.774 1.491-1.529 1.491-.758 0-1.533-.473-1.533-1.491 0-.957.64-1.528 1.533-1.528m0 2.708c.636 0 1.208-.371 1.208-1.245 0-.642-.451-1.169-1.208-1.169-.76 0-1.21.527-1.21 1.169 0 .874.565 1.245 1.21 1.245"/><path d="m62.768 25.557h1.509c.417 0 1.028.098 1.028.804 0 .599-.507.773-.822.788l.863 1.283h-.394l-.84-1.271h-1.027v1.271h-.317zm.317 1.294h1.123c.455 0 .795-.073.795-.494 0-.42-.34-.494-.795-.494h-1.123z"/><path d="m66.785 27.271-1.348-1.714h.414l1.093 1.402 1.091-1.402h.414l-1.346 1.714v1.161h-.318z"/><path d="m42.677 25.557h.387l1.342 2.875h-.355l-.522-1.158h-1.305l-.54 1.158h-.352zm.721 1.432-.528-1.159-.519 1.159z"/><path d="m55.354 25.557h.387l1.34 2.875h-.354l-.523-1.158h-1.295l-.548 1.158h-.351zm.719 1.432-.524-1.159-.527 1.159z"/><path d="m32.527 25.557h.387l1.341 2.875h-.356l-.521-1.158h-1.297l-.548 1.158h-.352zm.721 1.432-.527-1.159-.524 1.159z"/><path d="m30.691 21.641c0 1.087.879 1.976 1.958 1.976 1.08 0 1.957-.889 1.957-1.976 0-1.091-.877-1.979-1.957-1.979-1.079 0-1.958.888-1.958 1.979m.986 0c0-.645.399-1.091.972-1.091.572 0 .972.446.972 1.091 0 .641-.4 1.088-.972 1.088-.573 0-.972-.447-.972-1.088"/><path d="m0 18.54v4.951h1.067v-1.85h.861c.745 0 2.13 0 2.13-1.545 0-1.556-1.385-1.556-2.13-1.556zm2.123.98c.589 0 .871.086.871.569 0 .485-.282.572-.871.572h-1.056v-1.141z"/><path d="m7.847 23.358c-.02-.039-.053-.157-.053-.529v-1.757c0-.455 0-1.403-1.729-1.403-.871 0-1.446.303-1.69.881l.924.225c.073-.121.259-.269.771-.269.519 0 .782.125.782.369v.071c-.888.057-2.762.207-2.762 1.509 0 .91.868 1.154 1.38 1.154.622 0 1.095-.243 1.392-.414.009.081.023.162.034.224l.015.072h1.002zm-.995-.98c-.324.201-.752.421-1.267.421-.176 0-.312-.044-.387-.13-.059-.062-.092-.149-.092-.259v-.012c.007-.184.087-.374.647-.511.364-.094.725-.145 1.099-.165z"/><path d="m11.107 22.229c-.116.262-.434.505-.955.505-.736 0-.999-.594-.999-1.151 0-.504.372-1.038 1.061-1.038.47 0 .747.246.858.461l.914-.24c-.196-.587-.79-1.1-1.824-1.097-1.29.008-1.966.951-1.966 1.88 0 1.31.743 2.06 2.035 2.06.987 0 1.552-.563 1.789-1.142z"/><path d="m12.542 19.325h.944v-.9h-.944zm0 4.165h.944v-3.705h-.944z"/><path d="m15.5 19.754c0-.148.034-.227.107-.323.138-.181.649-.215.997-.18l.27-.841-.066-.012c-.371-.055-.822-.04-.851-.04h-.008c-.189 0-.761.065-1.11.433-.189.194-.283.466-.283.796v.318h-.623v.875h.623v2.711h.944v-2.711h.918l.285-.875h-1.203z"/><path d="m17.216999 19.785999h.944v3.705h-.944z"/><path d="m17.216999 18.424h.944v.9h-.944z"/><path d="m21.55 22.224c-.114.267-.431.51-.955.51-.738 0-.998-.594-.998-1.151 0-.504.371-1.038 1.061-1.038.47 0 .748.246.858.461l.915-.239c-.196-.587-.791-1.102-1.823-1.098-1.292.008-1.968.95-1.968 1.88 0 1.31.742 2.06 2.037 2.06.986 0 1.553-.563 1.787-1.142z"/><path d="m29.265 18.54v3.305l-2.548-3.305h-1.059v4.95h1.02v-3.43l2.672 3.43h.933v-4.95z"/><path d="m36.038 20.157v-.371h-.944v3.704h.944v-1.61-.009c.007-.274-.021-1.164.556-1.237.341-.045.559.066.559.066v-.937s-.256-.069-.373-.069c-.429 0-.615.264-.742.463"/><path d="m38.114 18.911v.861h-.599v.942h.599v1.782c0 .767.38 1.113 1.228 1.113.267 0 .447-.026.804-.073l.114-.02v-.909l-.108.03c-.185.055-.489.097-.637.097-.316 0-.458-.133-.458-.43v-1.59h.878l.288-.942h-1.166v-1.146z"/><path d="m40.875 18.254v5.237h.943v-2.486c.185-.237.424-.461.976-.461.389 0 .628.15.628.901v2.046h.944v-2.347c0-.963-.48-1.475-1.391-1.475-.572 0-.919.207-1.157.435v-2.139z"/><path d="m49.663 19.854s-.696 1.873-.829 2.243c-.134-.37-.827-2.243-.827-2.243h-.805s-.68 1.864-.812 2.241c-.133-.377-.817-2.241-.817-2.241h-.996l1.389 3.637h.846s.662-1.914.791-2.295c.132.381.795 2.295.795 2.295h.859l1.376-3.637z"/><path d="m56.522 21.132c-.467-.068-.711-.107-.711-.297 0-.157.176-.338.664-.338.452 0 .709.166.866.326l.731-.541c-.539-.554-1.264-.617-1.58-.617-1.309 0-1.66.758-1.66 1.21 0 .706.479 1.073 1.6 1.223.831.118.936.146.936.324 0 .258-.379.35-.699.35-.514 0-.887-.17-1.107-.499l-.746.556c.28.357.703.779 1.778.779 1.116 0 1.755-.456 1.755-1.246 0-.981-.971-1.112-1.827-1.23"/><path d="m59.167 18.911v.861h-.596v.942h.596v1.782c0 .767.379 1.113 1.227 1.113.271 0 .449-.026.809-.073l.111-.02v-.909l-.106.03c-.185.055-.488.097-.638.097-.314 0-.459-.133-.459-.43v-1.59h1.022l.146-.942h-1.169v-1.146z"/><path d="m52.466 19.677c-1.342 0-1.94.983-1.94 1.959 0 1.181.802 1.977 1.995 1.977.975 0 1.453-.522 1.653-.841l-.859-.454c-.091.202-.356.438-.819.438-.533-.022-.852-.292-.963-.785h2.881v-.099c-.001-1.382-.708-2.183-1.948-2.195m-.897 1.467c.139-.401.42-.608.877-.608.502 0 .787.199.911.608z"/></g><path d="m34.151 7.155c.051.011 1.023.465 2.376 1.247-.347.005-.55.013-.574.018-.241.011-.426.219-.405.453.021.235.215.41.446.399.042-.007.769-.052 1.886-.048.576.367 1.182.774 1.789 1.217-.407.171-.646.284-.67.304-.244.115-.364.368-.266.555.097.186.357.244.593.134.024-.023.403-.206 1.032-.473.21.161.418.33.626.499.46.359.9.734 1.324 1.113-.402.304-.633.498-.654.527-.254.212-.32.553-.143.743.173.19.5.183.745-.022.021-.027.282-.256.74-.613.596.572 1.139 1.134 1.614 1.648-.261.275-.411.448-.426.479-.288.319-.303.765-.044.979.26.211.676.137.951-.17.01-.027.127-.163.332-.39.728.824 1.17 1.367 1.221 1.334.069-.041-.282-.691-.944-1.634.759-.821 2.193-2.282 4.043-3.938.977.423 1.578.742 1.588.716.045-.052-.475-.428-1.367-.913 1.232-1.092 2.636-2.256 4.143-3.372 1.442-.038 2.389.003 2.389-.037.012-.05-.781-.169-2.03-.226.42-.306.847-.606 1.282-.9.791-.569 1.599-1.107 2.402-1.612 2.051-.651 3.477-.981 3.459-1.036-.004-.063-.949.058-2.406.388 4.604-2.754 8.795-4.407 8.744-4.514-.039-.169-5.793 1.764-11.342 5.2-1.666.496-3.568 1.172-5.416 2.049-.386.172-.772.352-1.152.537-.771.073-1.565.178-2.36.328-1.434.222-2.838.569-4.09.937-1.792-.376-3.584-.543-4.981-.613-2.075-1.467-3.843-2.371-3.927-2.392-.225-.107-.527.059-.66.368-.131.311-.077.632.132.731m10.827 7.322c-.415-.534-.895-1.112-1.429-1.697.816-.62 1.971-1.454 3.337-2.332.629.195 1.215.405 1.746.611-1.616 1.398-2.888 2.637-3.654 3.418m9.863-8.132c-.652.424-1.295.863-1.914 1.31-.35.001-.712.009-1.092.023 1.005-.501 2.023-.945 3.006-1.333m-3.971 1.813c.535-.057 1.057-.101 1.55-.134-1.261.931-2.44 1.88-3.484 2.774-.471-.22-.993-.448-1.555-.664 1.073-.67 2.254-1.354 3.489-1.976m-3.092.494c.313-.068.627-.131.945-.188-.815.434-1.594.883-2.312 1.321-.488-.16-.998-.309-1.52-.436.919-.267 1.893-.511 2.887-.697m-4.076 1.061c.077.015.156.027.233.043.649.097 1.282.233 1.892.391-1.181.741-2.182 1.438-2.904 1.966-.434-.443-.898-.886-1.382-1.308-.081-.077-.164-.152-.247-.227.677-.269 1.497-.571 2.408-.865m-1.478-.223c-.579.193-1.1.381-1.55.55-.314-.266-.633-.52-.951-.767.777.04 1.626.107 2.501.217" fill="#d29431"/></g></svg>